<svg width="123" height="123" viewBox="0 0 123 123" fill="none" xmlns="http://www.w3.org/2000/svg">
<path d="M123 105.917C123 115.354 115.354 123 105.917 123H17.0833C7.64992 123 0 115.354 0 105.917V17.0833C0 7.6465 7.64992 0 17.0833 0H105.917C115.354 0 123 7.6465 123 17.0833V105.917Z" fill="#673AB7"/>
<path d="M92.3525 66.9667C90.1317 63.8917 86.92 61.7733 82.7858 60.6458C82.7858 60.6458 86.2708 59.3817 89.4142 54.6667C91.2933 51.66 92.25 48.0383 92.25 43.8017C92.25 36.4558 89.585 30.8183 84.255 26.9575C78.925 23.0967 72.9117 20.5 62.6958 20.5H30.75V102.5H66.3858C76.055 102.432 83.3325 100.348 88.2867 96.35C93.2067 92.2842 95.6667 86.2708 95.6667 78.2417C95.6667 73.8 94.5733 70.0417 92.3525 66.9667ZM51.25 34.1667C51.25 34.1667 65.4975 34.1667 65.7708 34.1667C70.9642 34.1667 75.1667 38.3692 75.1667 43.5625C75.1667 48.7558 70.9642 52.9583 65.7708 52.9583C65.4975 52.9583 51.25 52.9583 51.25 52.9583V34.1667ZM68.3333 88.8333H51.25V68.3333H68.3333C74.005 68.3333 78.5833 72.9117 78.5833 78.5833C78.5833 84.255 74.005 88.8333 68.3333 88.8333Z" fill="white"/>
</svg>
