<svg width="123" height="123" viewBox="0 0 123 123" fill="none" xmlns="http://www.w3.org/2000/svg">
<g clip-path="url(#clip0_52:225)">
<path d="M41.016 123C46.4529 123 51.6672 120.84 55.5117 116.996C59.3562 113.151 61.516 107.937 61.516 102.5V82H41.016C35.5791 82 30.3648 84.1598 26.5203 88.0043C22.6758 91.8488 20.516 97.0631 20.516 102.5C20.516 107.937 22.6758 113.151 26.5203 116.996C30.3648 120.84 35.5791 123 41.016 123Z" fill="#0ACF83"/>
<path d="M20.516 61.5C20.516 56.0631 22.6758 50.8488 26.5203 47.0043C30.3648 43.1598 35.5791 41 41.016 41H61.516V82H41.016C35.5791 82 30.3648 79.8402 26.5203 75.9957C22.6758 72.1512 20.516 66.9369 20.516 61.5Z" fill="#A259FF"/>
<path d="M20.516 20.5C20.516 15.0658 22.6736 9.854 26.5146 6.00997C30.3557 2.16593 35.5658 0.00424544 41 0L61.5 0V41H41.016C35.5791 41 30.3648 38.8402 26.5203 34.9957C22.6758 31.1512 20.516 25.9369 20.516 20.5Z" fill="#F24E1E"/>
<path d="M61.516 0H82.016C87.453 0 92.6672 2.15982 96.5117 6.00431C100.356 9.84881 102.516 15.0631 102.516 20.5C102.516 25.9369 100.356 31.1512 96.5117 34.9957C92.6672 38.8402 87.453 41 82.016 41H61.516V0Z" fill="#FF7262"/>
<path d="M102.516 61.5C102.516 66.9369 100.356 72.1512 96.5117 75.9957C92.6672 79.8402 87.453 82 82.016 82C76.5791 82 71.3648 79.8402 67.5203 75.9957C63.6758 72.1512 61.516 66.9369 61.516 61.5C61.516 56.0631 63.6758 50.8488 67.5203 47.0043C71.3648 43.1598 76.5791 41 82.016 41C87.453 41 92.6672 43.1598 96.5117 47.0043C100.356 50.8488 102.516 56.0631 102.516 61.5Z" fill="#1ABCFE"/>
</g>
<defs>
<clipPath id="clip0_52:225">
<rect width="123" height="123" fill="white"/>
</clipPath>
</defs>
</svg>
