<svg width="123" height="123" viewBox="0 0 123 123" fill="none" xmlns="http://www.w3.org/2000/svg">
<path fill-rule="evenodd" clip-rule="evenodd" d="M35.521 34.0738C36.3638 42.9452 37.1998 51.7666 38.055 60.786C39.4494 58.3884 40.4583 56.0889 41.9805 54.2055C43.3979 52.4508 45.1842 50.8316 47.1282 49.7102C49.666 48.2457 52.9938 49.6247 53.8163 52.2221C54.0374 52.9188 53.5098 53.8528 53.3253 54.6783C52.7045 54.3506 51.9041 54.1699 51.4986 53.6683C49.7756 51.5379 48.7378 51.2861 46.8322 53.1273C43.2777 56.5636 41.279 60.8686 40.516 65.7069C40.369 66.6429 40.9542 67.6932 41.2011 68.6906C42.1727 68.3562 43.3008 68.2332 44.0859 67.649C46.6381 65.7492 48.2198 63.1653 49.0924 60.0768C49.2817 59.408 50.308 58.9765 50.9499 58.4355C51.2574 59.0678 51.9588 59.8125 51.8118 60.3132C50.4598 64.9641 48.9924 69.5853 47.453 74.1786C47.2973 74.6437 46.4431 74.8752 45.9117 75.2154C45.6974 74.6043 45.2467 73.9643 45.3188 73.3887C45.4802 72.0837 45.9001 70.8105 46.1932 69.6151L39.236 72.8179C39.6252 77.2593 40.0288 82.2418 40.5074 87.2175C40.8744 91.0171 41.4962 92.0011 45.238 92.7218C49.6045 93.5626 54.0527 94.0998 58.4913 94.4265C65.0497 94.9098 71.5504 94.3121 77.9311 92.5968C80.3065 91.9588 81.254 90.3963 81.4241 88.0641C81.5797 85.9164 81.9276 83.7822 82.1688 81.6402C82.6425 77.4208 83.1028 73.2003 83.5871 68.804C81.9853 69.8188 80.7255 70.9546 79.2523 71.436C78.1799 71.7868 76.8269 71.2736 75.5979 71.1449C75.8333 70.0167 75.8189 68.7454 76.3628 67.7941C77.2488 66.2393 78.4999 64.8911 79.5954 63.4555L79.1236 62.8875C78.3385 63.3517 77.3631 63.6563 76.8048 64.3145C75.669 65.6541 74.5572 67.0878 73.7971 68.658C72.5248 71.2861 71.5552 74.0604 70.4165 76.7548C69.9216 77.9233 69.495 79.7107 67.8374 79.0284C66.0644 78.2971 67.3117 76.7356 67.7278 75.6248C68.3899 73.8528 69.2644 72.1596 69.8563 70.8566C68.1785 71.0565 66.4776 71.2977 64.7691 71.4466C64.0465 71.5081 63.1874 71.1122 62.5964 71.3793C60.6313 72.2673 59.3859 71.9107 58.9775 69.7352C58.0675 70.3262 57.2969 71.1266 56.3888 71.3419C55.2866 71.6042 53.7914 71.7762 52.9842 71.2256C52.3375 70.7845 52.102 69.1269 52.323 68.1544C52.7622 66.221 53.5828 64.3626 54.3621 62.5243C54.8445 61.3856 55.3298 59.5675 56.9576 60.3593C58.5662 61.1406 57.1056 62.459 56.7347 63.517C56.1591 65.1525 55.5729 66.7851 54.9925 68.4187L55.915 68.976C56.7933 68.2131 57.8878 67.5913 58.5028 66.6554C59.5099 65.1256 60.1182 63.3382 61.0714 61.768C61.4664 61.1175 62.3168 60.7447 62.9616 60.2459C63.0923 61.0743 63.4055 61.9256 63.3018 62.7251C63.1989 63.5333 62.631 64.2723 62.3591 65.0718C61.9507 66.2691 61.6211 67.4933 61.2059 68.8857C63.1691 68.9607 64.01 68.1343 64.5644 66.6765C66.3191 62.0707 68.093 57.4698 70.0216 52.9351C70.3512 52.1587 71.4716 51.7205 72.2279 51.1247C72.3153 52.0607 72.7324 53.1215 72.4355 53.9105C70.8547 58.0896 69.0799 62.1937 67.4117 66.3402C67.1301 67.0388 67.0398 67.8143 66.862 68.5542C69.8015 67.2329 72.2548 65.7723 73.1504 62.6483C73.3695 61.8891 74.267 61.3251 74.8522 60.6707L76.2129 62.1121C76.6261 61.7642 77.0047 61.3683 77.4535 61.0791C78.8661 60.169 80.3872 59.3667 81.8767 60.7764C83.418 62.2341 82.2514 63.6544 81.4462 64.9151C80.5698 66.2902 79.4964 67.5385 78.5086 68.8415C80.7303 67.4097 83.764 66.7678 84.1675 63.6736C85.1515 56.1158 86.0164 48.5427 86.8937 40.9714C87.1541 38.7305 87.2935 36.4752 87.4962 34.1401C69.9976 38.3769 52.8746 38.4029 35.521 34.0738ZM43.0317 93.0456C43.8745 95.2721 45.1544 97.4592 45.4898 99.7827C46.198 104.729 46.3777 109.75 46.8793 114.729C46.9524 115.455 47.4223 116.451 48.0084 116.77C56.6376 121.46 65.3505 122.273 74.1546 117.144C75.4682 116.379 75.7113 115.369 75.8814 113.949C76.7049 107.048 74.8714 99.7289 79.2831 93.2311C66.9293 96.2955 54.8724 96.3906 43.0317 93.0456ZM72.8121 35.3125C77.0038 34.9079 81.1444 33.9239 85.2899 33.111C86.0712 32.9582 86.765 32.3634 87.4991 31.9723C86.5315 31.1218 85.6945 30.7125 84.82 30.6096C80.467 30.0955 76.0986 29.6996 71.7484 29.1606C71.0911 29.0789 69.9178 28.2678 69.9668 28.1199C71.2362 24.2953 71.1738 19.9663 74.0546 16.7433C77.6956 12.6689 81.3741 8.63013 85.0247 4.58938C82.3091 1.66813 82.2726 1.66429 79.8116 4.22135C78.4202 5.6666 77.1489 7.2483 75.6392 8.5571C70.0533 13.3983 66.1298 19.1322 65.3649 26.6919C65.189 28.4264 64.2367 29.0529 62.4158 29.0798C56.4041 29.1673 50.3858 29.3326 44.3876 29.7275C41.4154 29.9226 38.4798 30.6856 35.5268 31.191L35.4999 32.2951C37.3478 32.865 39.1601 33.6135 41.0474 33.9758C51.5639 35.9919 62.1794 36.3378 72.8121 35.3125ZM69.4527 32.6718C67.0725 34.5937 65.1054 34.5937 63.2057 32.6718H69.4527Z" fill="#EB4A4B"/>
</svg>
