<svg width="123" height="123" viewBox="0 0 123 123" fill="none" xmlns="http://www.w3.org/2000/svg">
<path d="M6 0L16.6341 110.868L61.4331 123L105.599 110.868L116.233 0H6Z" fill="#FD982C"/>
<path d="M61.9195 0V123L106.085 110.868L116.719 0H61.9195Z" fill="#FA502E"/>
<path d="M94.6936 38.2884L47.6415 38.2874L48.4288 46.8946H94.4703L90.7495 94.9874L61.8801 103.384L30.8936 93.7469V74.2438H50.1423V80.0526L61.8838 83.6805L73.0087 80.0497L73.8186 65.6498H31.192L26.3798 19.7734H94.6936V38.2884Z" fill="white"/>
<path d="M61.9195 19.7734H94.6936V38.2884H61.9195V19.7734Z" fill="#DEECF1"/>
<path d="M73.8186 65.6497L73.0087 80.0497L61.9195 83.6692V103.373L90.7495 94.9874L94.4703 46.8945H61.9195V65.6497H73.8186Z" fill="#DEECF1"/>
</svg>
