<svg width="123" height="123" viewBox="0 0 123 123" fill="none" xmlns="http://www.w3.org/2000/svg">
<path d="M2.04224 120.958H120.958V2.04224H2.04224V120.958Z" fill="#FFE100"/>
<path d="M114.807 120.958H120.958V2.04224H114.807V120.958Z" fill="#FFA800"/>
<path d="M120.958 123H2.04223C0.914332 123 0 122.086 0 120.958V2.04223C0 0.914332 0.914332 0 2.04223 0H120.958C122.086 0 123 0.914332 123 2.04223V120.958C123 122.086 122.086 123 120.958 123ZM4.08447 118.916H118.916V4.08447H4.08447V118.916Z" fill="black"/>
<path d="M94.3042 112.749C84.1342 112.749 75.8598 104.475 75.8598 94.3044C75.8598 93.1765 76.7743 92.2621 77.902 92.2621C79.0299 92.2621 79.9442 93.1765 79.9442 94.3044C79.9442 102.222 86.3861 108.664 94.3042 108.664C102.222 108.664 108.664 102.223 108.664 94.3044C108.664 86.3863 102.222 79.9444 94.3042 79.9444C84.1342 79.9444 75.8598 71.6702 75.8598 61.4999C75.8598 51.3296 84.1339 43.0557 94.3042 43.0557C104.475 43.0557 112.749 51.3298 112.749 61.5001C112.749 62.628 111.834 63.5424 110.706 63.5424C109.579 63.5424 108.664 62.628 108.664 61.5001C108.664 53.582 102.222 47.1401 94.3042 47.1401C86.3861 47.1401 79.9442 53.582 79.9442 61.5001C79.9442 69.418 86.3861 75.8601 94.3042 75.8601C104.474 75.8601 112.749 84.1343 112.749 94.3046C112.749 104.475 104.474 112.749 94.3042 112.749Z" fill="black"/>
<path d="M51.2487 112.749C41.0786 112.749 32.8042 104.475 32.8042 94.3044C32.8042 93.1765 33.7186 92.2621 34.8465 92.2621C35.9744 92.2621 36.8887 93.1765 36.8887 94.3044C36.8887 102.222 43.3303 108.664 51.2487 108.664C59.1671 108.664 65.6087 102.223 65.6087 94.3044V45.0979C65.6087 43.97 66.5231 43.0557 67.651 43.0557C68.7789 43.0557 69.6932 43.97 69.6932 45.0979V94.3041C69.6927 104.474 61.4188 112.749 51.2487 112.749Z" fill="black"/>
</svg>
