<svg width="15" height="15" viewBox="0 0 15 15" fill="none" xmlns="http://www.w3.org/2000/svg">
<g clip-path="url(#clip0_73:250)">
<path d="M14.3479 9.92739C14.0213 9.53536 13.6502 9.184 13.2912 8.8442C13.1636 8.72335 13.0317 8.59841 12.9045 8.47418C12.5393 8.11712 12.526 7.98297 12.8151 7.5774C13.0151 7.29784 13.2272 7.01791 13.4324 6.74718C13.6184 6.50156 13.8108 6.24756 13.9952 5.99273L14.0331 5.94033C14.3855 5.45268 14.75 4.94843 14.944 4.34013C14.9943 4.17965 15.0472 3.94348 14.9263 3.746C14.8054 3.54868 14.571 3.48848 14.4052 3.46037C14.3231 3.44645 14.2417 3.44455 14.1661 3.44455L11.858 3.4429L11.8389 3.44274C11.49 3.44274 11.2548 3.60719 11.12 3.94554C10.9914 4.26883 10.85 4.61309 10.6888 4.94042C10.3678 5.59223 9.96024 6.34297 9.37044 6.9691L9.34551 6.99574C9.27585 7.07059 9.19695 7.15535 9.13927 7.15535C9.13044 7.15535 9.12082 7.15366 9.10992 7.15023C8.98775 7.10263 8.90575 6.80688 8.90946 6.66931C8.9095 6.66741 8.90955 6.66551 8.90955 6.66361L8.90794 3.996C8.90794 3.98675 8.90727 3.97758 8.90608 3.96842C8.84737 3.53477 8.71731 3.26483 8.2259 3.16858C8.21285 3.16598 8.19951 3.1647 8.18622 3.1647H5.78631C5.39531 3.1647 5.17987 3.32362 4.97735 3.56148C4.92269 3.62506 4.8089 3.75743 4.8653 3.918C4.92252 4.08097 5.10828 4.11581 5.16876 4.12713C5.46901 4.18427 5.63825 4.36792 5.68618 4.68881C5.76988 5.24603 5.78016 5.84079 5.71856 6.56056C5.70138 6.7606 5.6674 6.9151 5.61141 7.0471C5.59841 7.0779 5.55229 7.17843 5.50526 7.17848C5.49031 7.17848 5.44709 7.17261 5.36835 7.11836C5.18218 6.99082 5.04597 6.80882 4.88718 6.58401C4.34697 5.82055 3.89358 4.97952 3.50093 4.01226C3.35531 3.6562 3.08334 3.45686 2.73479 3.45099C2.3518 3.44517 2.00457 3.44237 1.6734 3.44237C1.31155 3.44237 0.976082 3.44571 0.648503 3.45252C0.368074 3.45748 0.174103 3.54154 0.0720384 3.70256C-0.0301909 3.86371 -0.0235435 4.07539 0.0918154 4.33163C1.01526 6.38459 1.85255 7.87728 2.80671 9.17174C3.47529 10.0775 4.14589 10.7045 4.91691 11.1446C5.72921 11.6093 6.63953 11.8353 7.6998 11.8353C7.81999 11.8353 7.94427 11.8323 8.06958 11.8265C8.68568 11.7965 8.91425 11.5735 8.94315 10.9736C8.9569 10.667 8.99043 10.3455 9.14113 10.0713C9.23626 9.89857 9.32494 9.89857 9.35409 9.89857C9.41025 9.89857 9.47986 9.92442 9.55463 9.97285C9.68873 10.0604 9.80372 10.1776 9.89798 10.2801C9.98671 10.3774 10.0744 10.4757 10.1623 10.574C10.3518 10.7863 10.5477 11.0058 10.7524 11.2139C11.2005 11.6697 11.6941 11.8702 12.261 11.8267H14.3771C14.3816 11.8267 14.3862 11.8266 14.3907 11.8263C14.6015 11.8124 14.7841 11.6954 14.8917 11.5054C15.0249 11.27 15.0222 10.9697 14.8845 10.7019C14.7282 10.3991 14.5255 10.1404 14.3479 9.92739Z" fill="white"/>
</g>
<defs>
<clipPath id="clip0_73:250">
<rect width="15" height="15" fill="white"/>
</clipPath>
</defs>
</svg>
