<svg width="35" height="35" fill="none" xmlns="http://www.w3.org/2000/svg"><g clip-path="url(#clip0_48:394)" fill="#fff"><path d="M18.37 12.576c.39-.577 2.026-1.871 1.633-2.547a.61.61 0 00-.855-.223c-2.72 1.666-6.75 4.8-6.384 8.36.262 1.632 1.44 2.89 2.545 4.016 1.183 1.179 2.434 2.242 3.63 3.374.55.537 1.392-.339.821-.866-1.478-1.584-6.05-5.04-5.23-7.337.804-1.873 2.528-3.225 3.84-4.777z"/><path d="M34.829 15.108C32.997 2.528 17.593-4.694 7.32 3.488 4.211 5.903 1.615 9.146.577 12.994c-3.75 13.902 11.508 27.474 24.506 19.749.247-.11.774-.473 1.017-.605.888-.564.009-1.886-.853-1.288-2.386 1.639-5.21 2.721-8.122 2.786C4.791 33.977-3.43 17.859 4.576 8.256A21.292 21.292 0 018.23 4.69c9.233-7.33 23.254-.644 24.7 10.681 1.047 7.997-4.495 11.07-2.476 12.309.494.316 1.15.17 1.466-.323a21.542 21.542 0 001.523-2.81c1.327-2.931 1.862-6.245 1.386-9.439z"/></g><defs><clipPath id="clip0_48:394"><path fill="#fff" d="M0 0h35v35H0z"/></clipPath></defs></svg>