<svg width="35" height="35" fill="none" xmlns="http://www.w3.org/2000/svg"><g clip-path="url(#clip0_48:388)" fill="#fff"><path d="M16.63 12.576c-.39-.577-2.026-1.871-1.633-2.547a.61.61 0 01.855-.223c2.72 1.666 6.75 4.8 6.384 8.36-.262 1.632-1.44 2.89-2.545 4.016-1.183 1.179-2.434 2.242-3.63 3.374-.55.537-1.392-.339-.821-.866 1.478-1.584 6.05-5.04 5.23-7.337-.804-1.873-2.528-3.225-3.84-4.777z"/><path d="M.171 15.108C2.003 2.528 17.407-4.694 27.68 3.488c3.108 2.414 5.705 5.657 6.743 9.505 3.75 13.902-11.508 27.474-24.506 19.749-.247-.11-.773-.473-1.017-.605-.888-.564-.009-1.886.853-1.288 2.386 1.639 5.21 2.721 8.122 2.786 12.334.342 20.554-15.776 12.549-25.379A21.289 21.289 0 0026.77 4.69c-9.233-7.33-23.254-.644-24.7 10.68-1.047 7.997 4.495 11.07 2.476 12.309a1.062 1.062 0 01-1.466-.323 21.553 21.553 0 01-1.523-2.81C.23 21.617-.305 18.303.171 15.109z"/></g><defs><clipPath id="clip0_48:388"><path fill="#fff" transform="matrix(-1 0 0 1 35 0)" d="M0 0h35v35H0z"/></clipPath></defs></svg>