<svg width="123" height="123" fill="none" xmlns="http://www.w3.org/2000/svg"><path d="M123 105.917c0 9.437-7.646 17.083-17.083 17.083H17.083C7.65 123 0 115.354 0 105.917V17.083C0 7.647 7.65 0 17.083 0h88.834C115.354 0 123 7.646 123 17.083v88.834z" fill="#673AB7"/><path d="M92.353 66.967c-2.221-3.075-5.433-5.194-9.567-6.321 0 0 3.485-1.264 6.628-5.98 1.88-3.006 2.836-6.628 2.836-10.864 0-7.346-2.665-12.984-7.995-16.845-5.33-3.86-11.343-6.457-21.56-6.457H30.75v82h35.636c9.669-.068 16.947-2.152 21.9-6.15 4.92-4.066 7.38-10.08 7.38-18.108 0-4.442-1.093-8.2-3.313-11.275zm-41.103-32.8h14.52a9.39 9.39 0 019.397 9.395 9.39 9.39 0 01-9.396 9.396H51.25V34.167zm17.083 54.666H51.25v-20.5h17.083c5.672 0 10.25 4.579 10.25 10.25 0 5.672-4.578 10.25-10.25 10.25z" fill="#fff"/></svg>