<svg width="24" height="24" fill="none" xmlns="http://www.w3.org/2000/svg"><g clip-path="url(#clip0_80:78)"><path d="M12.005 1.946v2.321H4.267V.398h1.161l6.577 1.548z" fill="#FFB44E"/><path d="M12.005 4.267H2.72l-2.322 8.2L2.72 23.612h2.32V18.97c0-.425.348-.774.774-.774H8.91c.426 0 .774.348.774.774v4.643h2.322V9.684h.773l.736.166.038-.166V4.267h-1.548z" fill="#E6E9ED"/><path d="M9.684 18.97v4.643H5.041V18.97c0-.425.348-.774.774-.774H8.91c.426 0 .774.348.774.774z" fill="#CF9E76"/><path d="M19.744 3.493V6.59h-3.87V4.267l2.71-.774h1.16z" fill="#969FAA"/><path d="M20.518 6.589v4.643l-.047.201-5.4-1.227.03-.135V6.59h5.417z" fill="#E6E9ED"/><path d="M21.291 11.619v11.994h-9.285V9.684h.773l.736.167 1.555.355 5.401 1.227.82.186z" fill="#FFB44E"/><path d="M10.458 6.589h-6.19v1.548h7.737V6.589h-1.547zM8.91 10.458H2.72v1.548h9.285v-1.548H8.91zm0 3.869H2.72v1.548h9.285v-1.548H8.91zm7.738 4.643h1.548v1.548h-1.548V18.97zm1.548 0h1.548v1.548h-1.548V18.97z" fill="#69D6F4"/><path d="M13.553 18.97h3.095v1.548h-3.095V18.97zm3.095-3.095h1.548v1.548h-1.548v-1.548zm1.548 0h1.548v1.548h-1.548v-1.548z" fill="#69D6F4"/><path d="M13.553 15.875h3.095v1.548h-3.095v-1.548z" fill="#69D6F4"/><path d="M21.678 11.31l-.773-.176V6.202h-.774V3.106h-1.548l-3.095.87v2.226h-.774v3.525l-.774-.176V3.88h-1.547V1.639L5.516.021 3.88.01v3.87H2.427L0 12.452l2.244 10.774h-.685V24h20.893v-.774h-.774V11.309zM3.106 15.487v-.774h.774v.774h-.774zm1.548-.774h.774v.774h-.774v-.774zm1.548 0h.774v.774h-.774v-.774zm1.547 0h.774v.774H7.75v-.774zm1.548 0h.774v.774h-.774v-.774zm1.548 0h.774v.774h-.774v-.774zm-7.739-3.096v-.774h.774v.774h-.774zm1.548-.774h.774v.774h-.774v-.774zm1.548 0h.774v.774h-.774v-.774zm1.547 0h.774v.774H7.75v-.774zm1.548 0h.774v.774h-.774v-.774zm1.548 0h.774v.774h-.774v-.774zm10.06 1.083v11.299h-8.513V10.07h.344l8.169 1.856zm-4.643-7.368l2.375-.679h.72v2.322h-3.095V4.559zm-.774 2.416h4.643v3.983l-4.643-1.055V6.975zM4.654.785h.73l6.235 1.467V3.88H4.654V.785zm.774 22.44V18.97c0-.214.173-.387.387-.387H8.91c.214 0 .387.173.387.387v4.256H5.428zM8.91 17.81H5.815c-.64 0-1.16.52-1.16 1.16v4.257h-1.62L.795 12.48l2.216-7.826h10.154v4.72l-.3-.068-1.247-.01v.775H2.333v2.321h9.286v1.548H2.333v2.321h9.286v6.965H10.07V18.97c0-.64-.52-1.161-1.16-1.161z" fill="#000"/><path d="M12.392 6.202H3.88v2.321h8.512V6.202zm-4.643.774h.774v.774H7.75v-.774zm-.773.774h-.774v-.774h.774v.774zm2.321-.774h.774v.774h-.774v-.774zm-4.643 0h.774v.774h-.774v-.774zm6.965.774h-.774v-.774h.774v.774zm8.511 10.833h-6.964v2.322h6.965v-2.322zm-2.32.774v.774h-.775v-.774h.774zm-1.548 0v.774h-.774v-.774h.774zm-2.322 0h.774v.774h-.774v-.774zm5.417.774h-.774v-.774h.774v.774zm.773-4.643h-6.964v2.321h6.965v-2.321zm-2.32.774v.774h-.775v-.774h.774zm-1.548 0v.774h-.774v-.774h.774zm-2.322 0h.774v.774h-.774v-.774zm5.417.774h-.774v-.774h.774v.774zm3.869 6.19H24V24h-.774v-.774zm-23.215 0h.774V24H.01v-.774z" fill="#000"/></g><defs><clipPath id="clip0_80:78"><path fill="#fff" d="M0 0h24v24H0z"/></clipPath></defs></svg>