<svg width="123" height="123" fill="none" xmlns="http://www.w3.org/2000/svg"><g clip-path="url(#clip0_52:225)"><path d="M41.016 123a20.502 20.502 0 0020.5-20.5V82h-20.5a20.5 20.5 0 000 41z" fill="#0ACF83"/><path d="M20.516 61.5a20.5 20.5 0 0120.5-20.5h20.5v41h-20.5a20.5 20.5 0 01-20.5-20.5z" fill="#A259FF"/><path d="M20.516 20.5A20.5 20.5 0 0141 0h20.5v41H41.016a20.5 20.5 0 01-20.5-20.5z" fill="#F24E1E"/><path d="M61.516 0h20.5a20.5 20.5 0 110 41h-20.5V0z" fill="#FF7262"/><path d="M102.516 61.5a20.5 20.5 0 11-41.002 0 20.5 20.5 0 0141.002 0z" fill="#1ABCFE"/></g><defs><clipPath id="clip0_52:225"><path fill="#fff" d="M0 0h123v123H0z"/></clipPath></defs></svg>