<svg width="24" height="24" fill="none" xmlns="http://www.w3.org/2000/svg"><path d="M16.183 10.442c-.173-.387-.352-.78-.352-1.215 0-.366.168-.667.206-1.016.016-.14.01-.232-.14-.27a.81.81 0 00-.439.022c-.287.092-.617.274-.812.522-.01.188-.222.366-.416.215-.687-.527-1.71-.543-2.538-.511-.779.032-1.612.124-2.354.376a.28.28 0 01-.13.017.295.295 0 01-.194-.081 7.096 7.096 0 00-.644-.565c-.238-.177-.547-.42-.855-.435-.606-.033-.222 1.064-.081 1.554.113.075.173.226.081.37-.26.388-.73.69-.893 1.141-.157.441-.14.898-.032 1.35.092.409.254.774.514 1.108.2.258.535.677.914.607a.263.263 0 01.206.043c.692.103 1.26.646 1.423 1.323.184.785-.265 1.468-1.017 1.727-.79.274-1.52.021-1.894-.721-.125-.242-.195-.527-.352-.753A.484.484 0 006 15.035c.119.58.054 1.231.509 1.672.514.495 1.217.377 1.866.43.487.044.844.307.747.834-.06.334-.195.662-.308.984-.114.328-.136.608-.141.941.081.011.168.027.249.038 1.59.199 3.203-.06 4.675-.672a.263.263 0 01.038-.27c.097-.128.092-.349.086-.5a3.771 3.771 0 00-.114-.774c-.102-.42-.221-.882-.465-1.242-.287-.43-.698-.839-.768-1.371-.06-.452.184-1.156.709-1.205a.277.277 0 01.167.038c.509-.065 1.028-.15 1.51-.328.46-.172.833-.409 1.174-.758.292-.302.536-.678.563-1.103.027-.473-.125-.893-.314-1.307z" fill="#FFB44E"/><path d="M19.358 9.836c-.574-2.593-2.66-4.678-5.131-5.456-1.168-.365-2.415-.492-3.619-.27-1.069.196-2.039.683-2.94 1.286-.965.65-1.883 1.429-2.571 2.387-.485.677-.871 1.498-.845 2.339 0 .005-.005.016-.005.021-.016.297-.047.588-.073.884a.38.38 0 01-.073.021c-.032.35-.084.704-.094 1.059-.01.37-.01.74.01 1.116.037.73.13 1.461.324 2.165.292 1.048.782 2.059 1.58 2.805.724.677 1.621 1.09 2.565 1.307v-.074a2.47 2.47 0 01.115-.767c.104-.329.25-.662.312-1 .032-.18.032-.207-.146-.234-.265-.037-.542-.015-.813-.031-.318-.021-.647-.07-.933-.212-.292-.148-.485-.35-.683-.609-.418-.55-.261-1.27-.501-1.884-.047-.121.026-.307.162-.338.526-.122 1.022-.022 1.288.497.203.386.312.995.76 1.175.574.227 1.45-.233 1.409-.91a1.195 1.195 0 00-1.074-1.128.142.142 0 01-.068-.015c-.438.01-.824-.302-1.1-.636a3.306 3.306 0 01-.678-1.275c-.146-.561-.193-1.127-.037-1.688.141-.503.537-.815.84-1.202-.073-.481-.303-.936-.287-1.434.01-.38.276-.82.683-.857.72-.064 1.377.54 1.877 1.037.777-.243 1.611-.344 2.42-.365.776-.021 1.684.021 2.382.423.25-.29.631-.502.98-.619.366-.122.871-.111 1.122.228.24.317.088.757-.016 1.095-.151.498.021.937.224 1.387.214.481.402 1.01.35 1.55a2.34 2.34 0 01-.58 1.292c-.359.418-.786.751-1.303.947a7.59 7.59 0 01-1.804.418.316.316 0 01-.125-.01 1.07 1.07 0 00-.14.259.638.638 0 00-.022.328c.047.243.204.466.345.662.25.349.469.682.615 1.095.156.445.281.921.323 1.392.021.233.026.476-.031.704a9.525 9.525 0 002.242-1.577c1.945-1.837 3.374-4.53 2.764-7.288z" fill="#DEECF1"/><path d="M22.678 7.272c-1.085-2.317-3.137-4.137-5.306-5.285C15.197.829 12.677.22 10.237.626 6.22 1.288 2.33 4.378 1.178 8.52a.28.28 0 01-.036.139c-.02.074-.04.155-.056.23-.025.053-.05.106-.07.165-.006.048-.016.101-.021.144-.046.219-.102.438-.138.656-.071.412-.056.839-.193 1.228-.01.112-.026.224-.041.337v.037c-.025.235-.046.47-.066.705-.041.49-.061.982-.056 1.473.015.966.122 1.932.351 2.867.443 1.777 1.299 3.459 2.648 4.66.927.827 2.012 1.372 3.178 1.724 1.273.39 2.597.609 3.926.614 2.622.005 5.255-.742 7.414-2.333 3.993-2.947 7.002-8.904 4.66-13.895zM11.02 20.415c-2.352.224-4.934-.492-6.273-2.675-.58-.945-.917-2.034-1.075-3.139a12.447 12.447 0 01-.127-1.74c0-.304.005-.609.02-.913.02-.336.082-.667.092-.998a.279.279 0 01.178-.256c-.178-1.132.26-2.237.907-3.15.763-1.084 1.792-1.975 2.882-2.68.901-.582 1.859-1.04 2.913-1.217a7.494 7.494 0 013.534.272c2.373.774 4.486 2.648 5.275 5.173 1.711 5.466-3.34 10.847-8.326 11.322z" fill="#FFB44E"/><path d="M9.835.168C9.385.253 8.94.365 8.5.5H15C13.32 0 11.551-.152 9.835.168z" fill="#000"/><path d="M22.663 6.191C21.38 4.042 19.309 2.383 17.13 1.32 16.448.99 15.74.713 15.013.5H8.697C5.027 1.622 1.73 4.606.687 8.462c-.169.293-.194.697-.265 1.021-.051.23-.087.463-.117.697-.005.021-.005.048-.01.07a15.275 15.275 0 00-.117.713c0 .004-.006.004-.006.01a.297.297 0 00-.02.17c-.05.43-.087.861-.117 1.292-.04.607-.046 1.218-.015 1.825.066 1.186.285 2.366.677 3.483.778 2.224 2.315 4.07 4.382 5.07 1.175.563 2.483.887 3.76 1.063a13.84 13.84 0 003.92-.032 12.616 12.616 0 006.926-3.447c1.853-1.803 3.309-4.127 3.975-6.69.672-2.548.352-5.26-.997-7.516zm-4.647 14.962c-2.158 1.585-4.79 2.33-7.41 2.324a13.649 13.649 0 01-3.92-.612c-1.165-.356-2.249-.893-3.175-1.718-1.349-1.196-2.204-2.872-2.647-4.643a12.526 12.526 0 01-.35-2.856c-.01-.49.01-.979.055-1.468.02-.234.041-.468.066-.702v-.037a6.51 6.51 0 00.041-.335c.138-.389.122-.82.194-1.224.04-.218.091-.436.137-.654.01-.042.015-.09.02-.144.02-.053.046-.111.072-.164.02-.075.035-.155.056-.23a.245.245 0 00.035-.137C2.34 4.42 6.23 1.34 10.244.68c2.438-.404 4.953.202 7.13 1.356C19.544 3.181 21.59 5 22.679 7.303c2.341 4.973-.667 10.908-4.662 13.85z" fill="#000"/><path d="M19.65 9.076c-.811-2.54-2.966-4.424-5.392-5.203a7.773 7.773 0 00-3.612-.273c-1.077.177-2.056.633-2.977 1.224-1.114.708-2.16 1.61-2.946 2.695-.66.918-1.108 2.029-.926 3.167a.282.282 0 00-.182.258c-.01.333-.079.67-.094 1.004a18 18 0 00-.021.918c.005.585.047 1.17.13 1.75.161 1.111.505 2.206 1.098 3.157 1.37 2.19 4.008 2.91 6.413 2.69 5.1-.484 10.264-5.896 8.51-11.387zm-5.855 9.878a.27.27 0 00-.036.268c-1.416.612-2.967.87-4.497.671a2.848 2.848 0 01-.24-.038c.006-.332.026-.611.136-.939.104-.322.234-.65.296-.982.094-.527-.255-.79-.718-.833-.63-.053-1.301.06-1.796-.429-.442-.435-.374-1.09-.489-1.67a.44.44 0 01.37.215c.15.226.224.505.338.752.36.746 1.062.993 1.822.72.718-.259 1.155-.94.978-1.724-.156-.677-.702-1.219-1.369-1.32a.241.241 0 00-.197-.044c-.365.07-.682-.349-.88-.607-.25-.332-.4-.697-.495-1.105-.098-.451-.12-.908.032-1.348.156-.45.609-.746.859-1.138.093-.145.03-.295-.079-.37-.135-.494-.504-1.584.079-1.552.301.016.598.258.822.435.218.172.427.365.62.564.056.059.119.08.187.08a.26.26 0 00.125-.016c.713-.252 1.514-.349 2.264-.376.796-.032 1.78-.016 2.44.51.188.15.391-.027.401-.215.188-.246.5-.429.781-.52a.754.754 0 01.422-.022c.15.032.15.13.135.269-.036.349-.198.65-.198 1.014 0 .43.167.827.339 1.214.182.413.328.837.296 1.293-.026.43-.26.8-.541 1.101-.328.349-.687.59-1.13.757-.463.177-.962.268-1.452.327a.25.25 0 00-.16-.037c-.506.048-.74.752-.683 1.202.068.532.463.94.74 1.37.233.36.348.82.447 1.24.057.252.094.51.11.773.015.16.02.38-.079.51zm2.8-1.611a9.608 9.608 0 01-2.238 1.6 2.19 2.19 0 00.032-.714 5.963 5.963 0 00-.323-1.412c-.146-.419-.365-.752-.614-1.111-.14-.204-.297-.425-.344-.671a.655.655 0 01.021-.333c.016-.054.088-.199.14-.263.037.01.079.021.125.01.615-.075 1.218-.198 1.801-.424.516-.198.937-.537 1.302-.96.317-.377.53-.811.577-1.31.052-.548-.135-1.085-.349-1.574-.197-.461-.374-.901-.223-1.406.104-.344.255-.79.015-1.111-.25-.344-.754-.355-1.119-.231-.348.118-.728.333-.978.628-.698-.414-1.603-.451-2.379-.43-.807.022-1.64.118-2.415.37-.5-.504-1.155-1.116-1.874-1.051-.406.037-.671.488-.681.87-.016.499.213.966.286 1.454-.302.392-.698.714-.838 1.219-.156.569-.11 1.143.036 1.712.125.483.365.913.677 1.294.276.338.66.655 1.098.644a.69.69 0 00.068.016 1.2 1.2 0 011.072 1.144c.042.682-.838 1.149-1.405.923-.448-.182-.562-.794-.76-1.191-.266-.527-.76-.629-1.286-.505-.135.032-.208.215-.161.344.24.622.078 1.352.5 1.91.197.264.39.468.681.618.287.145.614.193.932.215.27.016.541-.006.812.032.177.027.177.054.146.236-.063.344-.209.682-.313 1.015a2.71 2.71 0 00-.114.778v.075c-.947-.22-1.837-.638-2.56-1.326-.797-.756-1.292-1.782-1.578-2.845a10.397 10.397 0 01-.323-2.196 13.68 13.68 0 01-.01-1.132c.01-.36.062-.714.094-1.074a.294.294 0 00.072-.021c.026-.301.058-.596.073-.897 0-.005 0-.016.006-.021-.026-.854.359-1.68.843-2.373.682-.972 1.598-1.761 2.566-2.422.895-.612 1.868-1.106 2.935-1.304 1.208-.226 2.447-.097 3.612.274 2.468.789 4.55 2.904 5.122 5.535.604 2.802-.822 5.534-2.759 7.392z" fill="#010101"/></svg>