<svg width="123" height="123" fill="none" xmlns="http://www.w3.org/2000/svg"><path fill-rule="evenodd" clip-rule="evenodd" d="M35.521 34.074c.843 8.871 1.679 17.693 2.534 26.712 1.394-2.398 2.403-4.697 3.925-6.58 1.418-1.755 3.204-3.374 5.148-4.496 2.538-1.464 5.866-.085 6.688 2.512.221.697-.306 1.63-.49 2.456-.621-.327-1.422-.508-1.827-1.01-1.723-2.13-2.761-2.382-4.667-.54-3.554 3.436-5.553 7.74-6.316 12.579-.147.936.438 1.986.685 2.984.972-.335 2.1-.458 2.885-1.042 2.552-1.9 4.134-4.484 5.006-7.572.19-.669 1.216-1.1 1.858-1.642.307.633 1.009 1.377.862 1.878a359.214 359.214 0 01-4.359 13.866c-.156.465-1.01.696-1.541 1.036-.215-.61-.665-1.25-.593-1.826.161-1.305.581-2.578.874-3.774l-6.957 3.203c.39 4.441.793 9.424 1.271 14.4.367 3.8.99 4.783 4.731 5.504 4.367.84 8.815 1.378 13.253 1.705a58.033 58.033 0 0019.44-1.83c2.376-.638 3.323-2.2 3.493-4.533.156-2.148.504-4.282.745-6.424.474-4.22.934-8.44 1.418-12.836-1.602 1.015-2.862 2.15-4.335 2.632-1.072.35-2.425-.162-3.654-.291.235-1.128.22-2.4.765-3.35.886-1.556 2.137-2.904 3.232-4.34l-.471-.567c-.785.464-1.76.768-2.32 1.426-1.135 1.34-2.247 2.774-3.007 4.344-1.272 2.628-2.242 5.402-3.38 8.097-.495 1.168-.922 2.956-2.58 2.273-1.773-.73-.525-2.292-.11-3.403.663-1.772 1.537-3.465 2.13-4.768-1.678.2-3.38.44-5.088.59-.723.061-1.582-.335-2.173-.068-1.965.888-3.21.532-3.618-1.644-.91.591-1.681 1.392-2.59 1.607-1.101.262-2.597.434-3.404-.116-.647-.442-.882-2.1-.661-3.072.44-1.933 1.26-3.791 2.04-5.63.481-1.138.967-2.956 2.595-2.165 1.608.782.148 2.1-.223 3.158-.576 1.636-1.162 3.268-1.742 4.902l.922.557c.878-.763 1.973-1.385 2.588-2.32 1.007-1.53 1.615-3.318 2.568-4.888.395-.65 1.246-1.023 1.89-1.522.131.828.445 1.68.34 2.48-.102.807-.67 1.546-.942 2.346-.408 1.197-.738 2.421-1.153 3.814 1.963.075 2.804-.752 3.358-2.21 1.755-4.605 3.529-9.206 5.458-13.74.33-.777 1.45-1.215 2.206-1.811.087.936.504 1.996.208 2.785-1.581 4.18-3.356 8.284-5.024 12.43-.282.699-.372 1.474-.55 2.214 2.94-1.321 5.393-2.782 6.288-5.906.22-.759 1.117-1.323 1.702-1.977l1.36 1.441c.414-.348.793-.744 1.242-1.033 1.412-.91 2.933-1.712 4.423-.303 1.541 1.458.374 2.878-.43 4.14-.877 1.374-1.95 2.623-2.938 3.925 2.221-1.431 5.255-2.073 5.659-5.167.983-7.558 1.848-15.131 2.726-22.703.26-2.24.4-4.496.602-6.83-17.498 4.236-34.621 4.262-51.975-.067zm7.51 58.972c.843 2.226 2.123 4.413 2.459 6.737.708 4.946.888 9.967 1.39 14.946.072.726.542 1.722 1.128 2.041 8.63 4.69 17.342 5.503 26.147.374 1.313-.765 1.556-1.775 1.726-3.195.824-6.901-1.01-14.22 3.402-20.718-12.354 3.065-24.41 3.16-36.251-.185zm29.781-57.734c4.192-.404 8.332-1.388 12.478-2.201.781-.153 1.475-.748 2.21-1.139-.969-.85-1.805-1.26-2.68-1.362-4.353-.514-8.721-.91-13.072-1.45-.657-.081-1.83-.892-1.781-1.04 1.27-3.825 1.207-8.154 4.088-11.377 3.64-4.074 7.32-8.113 10.97-12.154-2.716-2.92-2.752-2.925-5.213-.368-1.392 1.446-2.663 3.027-4.173 4.336-5.586 4.841-9.51 10.575-10.274 18.135-.176 1.734-1.128 2.36-2.95 2.388-6.01.087-12.03.253-18.027.648-2.973.195-5.908.958-8.861 1.463l-.027 1.104c1.848.57 3.66 1.319 5.547 1.68 10.517 2.017 21.132 2.363 31.765 1.337zm-3.36-2.64c-2.38 1.922-4.347 1.922-6.246 0h6.247z" fill="#EB4A4B"/></svg>