<svg width="123" height="123" fill="none" xmlns="http://www.w3.org/2000/svg"><path d="M6 0l10.634 110.868L61.434 123l44.165-12.132L116.233 0H6z" fill="#FD982C"/><path d="M61.92 0v123l44.165-12.132L116.719 0h-54.8z" fill="#FA502E"/><path d="M94.694 38.288H47.64l.788 8.607H94.47l-3.72 48.092-28.87 8.397-30.986-9.637V74.244h19.248v5.809l11.742 3.627 11.125-3.63.81-14.4H31.192L26.38 19.773h68.314v18.515z" fill="#fff"/><path d="M61.92 19.773h32.774v18.515H61.919V19.773zM73.819 65.65l-.81 14.4-11.09 3.62v19.703l28.83-8.386 3.721-48.092H61.92V65.65h11.899z" fill="#DEECF1"/></svg>