<svg width="24" height="24" fill="none" xmlns="http://www.w3.org/2000/svg"><g clip-path="url(#clip0_80:103)"><path d="M23.648 12c0 6.433-5.215 11.648-11.648 11.648S.352 18.433.352 12 5.567.352 12 .352 23.648 5.567 23.648 12z" fill="#C3DDFF"/><path d="M.352 12c0 5.326 3.575 9.813 8.456 11.202 2.957-1.064 3.5-3.434 3.004-4.979-.399-1.244-1.902-1.949-3.789-1.338-2.312.748-3.958.355-4.853-.54-.65-.65-.693-1.655-.231-2.486.356-.64 1.003-1.064 1.718-1.222 1.656-.364 6.506-1.584 6.544-3.369.032-1.46-1.056-2.355-3.71-3.557-1.764-.8-2.251-2.466-1.59-3.635A11.64 11.64 0 00.35 12z" fill="#FFB44E"/><path d="M13.879 21.77c-6.433 0-11.649-5.216-11.649-11.65 0-2.738.947-5.253 2.528-7.241A11.625 11.625 0 00.352 12c0 6.433 5.215 11.648 11.648 11.648 3.695 0 6.987-1.722 9.12-4.406a11.595 11.595 0 01-7.241 2.528z" fill="#A4CCFF"/><path d="M4.574 17.128c-.58-.158-1.052-.43-1.404-.783-.62-.62-.682-1.564-.285-2.372a11.624 11.624 0 01-.655-3.852c0-2.738.947-5.253 2.528-7.241A11.624 11.624 0 00.352 12c0 5.326 3.575 9.813 8.456 11.202 1.163-.418 1.948-1.04 2.448-1.733a11.653 11.653 0 01-6.682-4.34zM12 .352c-1.063 0-2.09.145-3.069.411-1.422 2.456.595 3.804 2.646 3.953 2.607.189 4.365-1.895 5.715-.134 1.04 1.356-2.612 2.806-1.624 4.788l-1.007 5.453c-.14.592-.117 1.167.204 1.694 1.08 1.77 4.4-.531 3.68 2.203-.366 1.388-.44 2.397-.338 3.135A11.637 11.637 0 0023.648 12C23.648 5.567 18.433.352 12 .352z" fill="#FFB44E"/><path d="M18.764 15.006H5.236c-.83 0-1.503-.673-1.503-1.503v-3.006c0-.83.673-1.503 1.503-1.503h13.527c.83 0 1.504.673 1.504 1.503v3.006c0 .83-.673 1.503-1.503 1.503z" fill="#fff"/><path d="M18.172 20.95c-.014.34-.001.64.035.905a11.72 11.72 0 002.899-2.602 11.66 11.66 0 01-2.934 1.697z" fill="#FFB44E"/><path d="M6.364 13.879c-.83 0-1.503-.673-1.503-1.503V9.047a1.5 1.5 0 00-1.128 1.45v3.006c0 .83.673 1.503 1.503 1.503h13.527a1.5 1.5 0 001.45-1.127H6.364z" fill="#EDF4FF"/><path d="M9.13 10.548a.352.352 0 00-.46.19l-.616 1.475-.614-1.475a.352.352 0 00-.65 0l-.614 1.475-.615-1.475a.352.352 0 10-.65.27l.94 2.255a.352.352 0 00.65 0l.614-1.476.615 1.475a.352.352 0 00.65 0l.938-2.254a.352.352 0 00-.189-.46zm4.884 0a.352.352 0 00-.46.19l-.615 1.475-.614-1.475a.352.352 0 00-.65 0l-.615 1.475-.614-1.475a.352.352 0 10-.65.27l.94 2.255a.352.352 0 00.65 0L12 11.787l.615 1.475a.351.351 0 00.649 0l.94-2.254a.352.352 0 00-.19-.46zm4.135 2.714l.94-2.254a.352.352 0 00-.65-.27l-.615 1.475-.615-1.475a.352.352 0 00-.649 0l-.615 1.475-.614-1.475a.352.352 0 10-.65.27l.94 2.255a.352.352 0 00.649 0l.615-1.476.615 1.475a.351.351 0 00.649 0z" fill="#000"/><path d="M20.485 3.515A11.922 11.922 0 0012 0a11.922 11.922 0 00-8.485 3.515A11.922 11.922 0 000 12c0 3.205 1.248 6.219 3.515 8.485A11.922 11.922 0 0012 24c3.205 0 6.219-1.248 8.485-3.515A11.921 11.921 0 0024 12c0-3.205-1.248-6.219-3.515-8.485zM8.353 3.39c.493.944 1.719 1.596 3.199 1.703 1.13.081 2.084-.227 2.925-.5 1.275-.412 1.915-.575 2.537.23.23.3.17.526-.658 1.354-.609.61-1.415 1.416-1.164 2.464H11.55c-.108-1.424-1.489-2.271-3.923-3.284C6.29 4.801 6.031 3.91 5.982 3.553c-.078-.566.15-1.105.624-1.478l.02-.017A11.131 11.131 0 018.3 1.32c-.345.929-.18 1.622.054 2.07zm1.54 19.71c.963-.5 1.67-1.19 2.071-2.033a4.055 4.055 0 00.183-2.952 2.503 2.503 0 00-1.264-1.46c-.822-.421-1.876-.459-2.968-.106-1.94.629-3.58.463-4.497-.454-.346-.346-.5-.822-.434-1.34a2.01 2.01 0 01.417-.99 1.857 1.857 0 001.835 1.592h9.01c-.06.543.048 1.033.324 1.46.592.914 1.675.885 2.544.863.462-.012.985-.025 1.12.148.089.113.078.397-.028.777-.344 1.229-.462 2.258-.354 3.061A11.225 11.225 0 0112 23.297c-.715 0-1.419-.067-2.106-.196zm10.095-3.113c-.459.459-.95.873-1.468 1.24-.027-.655.094-1.47.363-2.432.18-.642.15-1.086-.094-1.4-.354-.452-1.004-.436-1.693-.418-.766.02-1.558.04-1.936-.543-.203-.313-.27-.66-.206-1.077h1.93a.352.352 0 100-.704H5.237a1.153 1.153 0 01-1.151-1.15v-3.007c0-.635.516-1.151 1.151-1.151h.376a.352.352 0 100-.704h-.376a1.857 1.857 0 00-1.854 1.855v2.333c-.586.405-1 1.093-1.096 1.836-.094.739.131 1.424.635 1.927 1.11 1.11 3.01 1.339 5.21.626.913-.295 1.776-.273 2.43.063.454.232.77.595.916 1.049a3.345 3.345 0 01-.148 2.434c-.442.93-1.31 1.622-2.577 2.06a11.239 11.239 0 01-4.74-2.837A11.222 11.222 0 01.703 12c0-3.018 1.175-5.854 3.309-7.988.406-.407.838-.778 1.292-1.113a2.276 2.276 0 00-.02.75c.139 1.009.894 1.868 2.072 2.358 2.426 1.01 3.376 1.71 3.486 2.635H7.115a.352.352 0 100 .704h11.648c.636 0 1.152.516 1.152 1.15v3.007c0 .635-.516 1.152-1.151 1.152h-.376a.351.351 0 100 .703h.375a1.857 1.857 0 001.855-1.855v-3.006a1.857 1.857 0 00-1.854-1.855h-2.835c-.272-.694.194-1.237.924-1.967.623-.622 1.398-1.397.717-2.28-.951-1.233-2.097-.862-3.31-.47-.78.253-1.664.539-2.658.468-1.238-.09-2.245-.598-2.625-1.327-.292-.558-.216-1.236.223-2.015.904-.23 1.843-.348 2.8-.348 3.018 0 5.854 1.175 7.988 3.309A11.223 11.223 0 0123.297 12c0 3.018-1.175 5.854-3.309 7.988z" fill="#000"/></g><defs><clipPath id="clip0_80:103"><path fill="#fff" d="M0 0h24v24H0z"/></clipPath></defs></svg>