<svg width="123" height="123" fill="none" xmlns="http://www.w3.org/2000/svg"><path d="M2.042 120.958h118.916V2.042H2.042v118.916z" fill="#FFE100"/><path d="M114.807 120.958h6.151V2.042h-6.151v118.916z" fill="#FFA800"/><path d="M120.958 123H2.042A2.042 2.042 0 010 120.958V2.042C0 .914.914 0 2.042 0h118.916C122.086 0 123 .914 123 2.042v118.916a2.042 2.042 0 01-2.042 2.042zM4.084 118.916h114.832V4.084H4.084v114.832z" fill="#000"/><path d="M94.304 112.749c-10.17 0-18.444-8.274-18.444-18.445a2.042 2.042 0 014.084 0c0 7.918 6.442 14.36 14.36 14.36 7.918 0 14.36-6.441 14.36-14.36 0-7.918-6.442-14.36-14.36-14.36-10.17 0-18.444-8.274-18.444-18.444s8.274-18.444 18.444-18.444c10.171 0 18.445 8.274 18.445 18.444a2.043 2.043 0 01-4.085 0c0-7.918-6.442-14.36-14.36-14.36-7.918 0-14.36 6.442-14.36 14.36 0 7.918 6.442 14.36 14.36 14.36 10.17 0 18.445 8.274 18.445 18.445 0 10.17-8.275 18.444-18.445 18.444zm-43.055 0c-10.17 0-18.445-8.274-18.445-18.445a2.042 2.042 0 014.085 0c0 7.918 6.441 14.36 14.36 14.36 7.918 0 14.36-6.441 14.36-14.36V45.098a2.042 2.042 0 014.084 0v49.206c0 10.17-8.274 18.445-18.444 18.445z" fill="#000"/></svg>