<?xml version="1.0" encoding="utf-8"?><svg xmlns="http://www.w3.org/2000/svg" xmlns:xlink="http://www.w3.org/1999/xlink"><symbol viewBox="0 0 27 27" id="biography" xmlns="http://www.w3.org/2000/svg"><path d="M8.727 8c-.878 0-1.594.71-1.605 1.585h3.21A1.607 1.607 0 008.727 8zm.793-2.374a.793.793 0 10-1.587.002.793.793 0 001.586-.002zm9.935 16.206v4.705l4.705-4.705h-4.705z"/><path d="M17.873 20.25h6.75V0H2.373v27h15.5v-6.75zM6.353 5.626a2.377 2.377 0 012.374-2.374A2.377 2.377 0 0111.1 5.626c0 .533-.177 1.026-.474 1.422a3.185 3.185 0 011.287 2.558v1.561H5.54V9.606c0-1.046.506-1.976 1.287-2.558a2.361 2.361 0 01-.474-1.422zm-.814 15.04v-1.581h5.973v1.582H5.539zm5.973 1.585v1.582H5.539v-1.582h5.973zm9.945-4.75H5.54v-1.583h15.918V17.5zm0-3.167H5.54v-1.582h15.918v1.582zm0-3.167h-7.959V9.585h7.96v1.582zm0-3.167h-7.959V6.418h7.96V8zm0-3.166h-7.959V3.252h7.96v1.582z"/></symbol><symbol viewBox="0 0 27 27" id="contacts" xmlns="http://www.w3.org/2000/svg"><g clip-path="url(#bclip0_4:47)"><path d="M14.4 7.2a.9.9 0 000 1.8c1.985 0 3.6 1.615 3.6 3.6a.9.9 0 001.8 0c0-2.977-2.423-5.4-5.4-5.4z"/><path d="M14.4 3.6a.9.9 0 000 1.8c3.97 0 7.2 3.23 7.2 7.2a.9.9 0 001.8 0c0-4.963-4.037-9-9-9z"/><path d="M14.4 0a.9.9 0 000 1.8c5.956 0 10.8 4.844 10.8 10.8a.9.9 0 001.8 0C27 5.652 21.346 0 14.4 0zm9.9 19.8c-2.614 0-5.103-.569-7.398-1.69a.884.884 0 00-.69-.042.908.908 0 00-.516.46l-1.415 2.928a22.637 22.637 0 01-8.733-8.734l2.926-1.418a.902.902 0 00.416-1.206A16.724 16.724 0 017.2 2.7a.9.9 0 00-.9-.9H.9a.9.9 0 00-.9.9C0 16.1 10.9 27 24.3 27a.9.9 0 00.9-.9v-5.4a.9.9 0 00-.9-.9z"/></g><defs><clipPath id="bclip0_4:47"><path d="M0 0h27v27H0z"/></clipPath></defs></symbol><symbol viewBox="0 0 15 15" id="email-bio" xmlns="http://www.w3.org/2000/svg"><path d="M9.943 7.577L15 10.774V4.245L9.943 7.577zM0 4.245v6.529l5.057-3.197L0 4.245zm14.063-1.901H.937a.926.926 0 00-.909.798L7.5 8.064l7.472-4.922a.926.926 0 00-.91-.798zM9.084 8.143l-1.326.874a.468.468 0 01-.516 0l-1.326-.875L.03 11.865a.924.924 0 00.908.791h13.125a.924.924 0 00.907-.791L9.084 8.143z"/></symbol><symbol viewBox="0 0 30 30" id="email-cont" xmlns="http://www.w3.org/2000/svg"><g clip-path="url(#dclip0_133:59)"><path d="M15.62 16.995a11.055 11.055 0 01-3.303-.521 4.995 4.995 0 01-3.318-3.782c-.376-1.813.31-3.73 1.882-5.26.168-.164.344-.321.526-.472a6.373 6.373 0 015.802-1.252 4.858 4.858 0 013.379 4.468 4.603 4.603 0 01-1.076 3.253 2.53 2.53 0 01-2.474.908 1.428 1.428 0 01-.918-.637c-.186-.32-.233-.7-.132-1.055.437-1.653.882-4.165.886-4.19a.5.5 0 11.985.174c-.018.104-.456 2.578-.904 4.271a.36.36 0 00.022.285c.07.095.174.16.29.178a1.553 1.553 0 001.493-.592 3.6 3.6 0 00.83-2.544 3.868 3.868 0 00-2.678-3.565 5.35 5.35 0 00-4.867 1.068 7.89 7.89 0 00-.467.419c-.777.756-2.018 2.325-1.6 4.34a4.049 4.049 0 002.642 3.032c2.345.748 5.715.838 7.49-1.37a.5.5 0 01.78.627c-1.313 1.633-3.31 2.217-5.27 2.217z"/><path d="M13.907 14.402a2.3 2.3 0 01-1.46-.49c-.959-.768-.985-2.103-.716-3.011.09-.303.212-.595.363-.873a4.1 4.1 0 011.717-1.782 2.364 2.364 0 012.782.448c.36.395.633.863.797 1.373a.5.5 0 01-.942.335 2.79 2.79 0 00-.578-1.018 1.354 1.354 0 00-1.617-.241 3.134 3.134 0 00-1.282 1.366 3.583 3.583 0 00-.282.678c-.194.657-.152 1.515.384 1.945.586.47 1.575.271 2.132-.209a5.61 5.61 0 001.057-1.285.5.5 0 11.85.527 6.568 6.568 0 01-1.252 1.514 3.072 3.072 0 01-1.953.723z"/><path d="M28.5 30h-27A1.501 1.501 0 010 28.5V10a.5.5 0 01.82-.385l12.268 10.197a3.002 3.002 0 003.825-.001L29.18 9.615A.5.5 0 0130 10v18.5c0 .828-.672 1.499-1.5 1.5zM1 11.066V28.5a.5.5 0 00.5.5h27a.5.5 0 00.5-.5V11.066L17.551 20.58a4.005 4.005 0 01-5.101.001L1 11.066z"/><path d="M.5 10.5a.5.5 0 01-.29-.908l4.5-3.19a.5.5 0 01.579.816l-4.5 3.19A.497.497 0 01.5 10.5zm29 0a.497.497 0 01-.29-.092l-4.5-3.19a.5.5 0 01.579-.816l4.5 3.19a.5.5 0 01-.29.908zm-9.88-7a.499.499 0 01-.29-.092l-2.39-1.695a3.005 3.005 0 00-3.85-.023l-2.42 1.718a.5.5 0 11-.579-.816l2.39-1.695a3.982 3.982 0 015.068.023l2.36 1.672a.5.5 0 01-.29.908zM.825 29.73a.5.5 0 01-.32-.885l11.41-9.48a.5.5 0 11.64.77l-11.41 9.48a.498.498 0 01-.32.115zm28.089-.246a.497.497 0 01-.32-.116l-11.41-9.48a.5.5 0 11.64-.769l11.41 9.48a.5.5 0 01-.32.885z"/><path d="M25 14.24a.5.5 0 01-.5-.5V3.504c-.001.01-.021-.004-.055-.004H5.555a.08.08 0 00-.06.021L5.5 13.74a.5.5 0 11-1 0V3.5a1.03 1.03 0 011.055-1h18.89a1.03 1.03 0 011.055 1v10.24a.5.5 0 01-.5.5z"/></g><defs><clipPath id="dclip0_133:59"><path d="M0 0h30v30H0z"/></clipPath></defs></symbol><symbol viewBox="0 0 15 15" id="github-bio" xmlns="http://www.w3.org/2000/svg"><g clip-path="url(#eclip0_73:233)"><path d="M13.398 6.29c.056-.352.09-.739.1-1.172-.004-1.856-.893-2.513-1.064-2.821C12.686.89 12.392.25 12.256.03c-.504-.179-1.752.461-2.435.912C8.71.617 6.358.649 5.477 1.027 3.85-.138 2.99.04 2.99.04s-.556.997-.147 2.456c-.535.682-.934 1.164-.934 2.443 0 .306.02.596.051.874.461 2.424 2.381 3.469 4.267 3.65-.283.215-.624.623-.671 1.096-.357.23-1.074.307-1.632.131-.782-.247-1.08-1.794-2.251-1.574-.254.048-.203.215.016.357.357.231.693.519.951 1.134.2.473.617 1.316 1.94 1.316.524 0 .892-.062.892-.062s.01 1.204.01 1.673c0 .54-.73.692-.73.951 0 .103.242.113.436.113.383 0 1.18-.32 1.18-.88 0-.447.008-1.946.008-2.209 0-.574.307-.756.307-.756s.038 3.062-.074 3.473c-.13.483-.368.414-.368.63 0 .32.96.078 1.277-.624.246-.549.136-3.552.136-3.552l.256-.006s.003 1.376-.006 2.004c-.009.651-.076 1.474.31 1.862.254.256 1.032.704 1.032.294 0-.237-.545-.433-.545-1.076v-2.963c.331 0 .4.974.4.974l.119 1.81s-.08.66.713.935c.28.098.878.125.906-.04.028-.165-.72-.409-.728-.92-.003-.31.014-.493.014-1.847 0-1.352-.181-1.853-.815-2.252 1.837-.188 3.745-1.008 4.088-3.165z"/></g><defs><clipPath id="eclip0_73:233"><path d="M0 0h15v15H0z"/></clipPath></defs></symbol><symbol viewBox="0 0 18 18" id="github-f" xmlns="http://www.w3.org/2000/svg"><g clip-path="url(#fclip0_64:36)"><path d="M9 .375c-4.973 0-9 3.96-9 8.844 0 3.908 2.579 7.223 6.154 8.391.45.083.615-.19.615-.425 0-.21-.008-.767-.011-1.504-2.504.533-3.032-1.186-3.032-1.186-.41-1.021-1.001-1.294-1.001-1.294-.816-.549.063-.537.063-.537.904.061 1.378.911 1.378.911.803 1.352 2.107.962 2.621.736.082-.572.313-.962.57-1.183-1.998-.221-4.099-.982-4.099-4.37 0-.965.349-1.754.926-2.373-.101-.224-.405-1.123.079-2.341 0 0 .754-.237 2.475.907a8.786 8.786 0 012.25-.299c.765.005 1.53.102 2.25.299 1.71-1.144 2.464-.907 2.464-.907.483 1.218.18 2.117.09 2.34.574.62.922 1.409.922 2.374 0 3.397-2.104 4.145-4.106 4.363.315.265.607.807.607 1.636 0 1.184-.01 2.135-.01 2.422 0 .232.157.508.618.42C15.423 16.438 18 13.12 18 9.219 18 4.335 13.97.375 9 .375z"/></g><defs><clipPath id="fclip0_64:36"><path d="M0 0h18v18H0z"/></clipPath></defs></symbol><symbol viewBox="0 0 27 27" id="info" xmlns="http://www.w3.org/2000/svg"><path d="M3.671 24.858s-.024.603.566.603l6.806-.008.01-5.577s-.096-.919.796-.919h2.824c1.055 0 .99.92.99.92l-.012 5.558h6.663c.748 0 .714-.751.714-.751V14.402l-9.39-8.351-9.967 8.351v10.456z"/><path d="M0 13.625s.846 1.56 2.692 0l11.03-9.331 10.341 9.273c2.137 1.54 2.937 0 2.937 0L13.722 1.539 0 13.625zm23.812-9.353h-2.66l.011 3.225 2.65 2.248V4.272z"/></symbol><symbol viewBox="0 0 30 30" id="phone-cont" xmlns="http://www.w3.org/2000/svg"><g clip-path="url(#hclip0_133:73)"><path d="M23.132 12.905a3.12 3.12 0 00-2.758-1.654H9.626a3.12 3.12 0 00-2.757 1.654l-4 7.5a3.14 3.14 0 00-.368 1.47v4.375c0 1.379 1.122 2.5 2.5 2.5h20c1.378 0 2.5-1.121 2.5-2.5v-4.375c0-.51-.127-1.018-.368-1.47l-4-7.5zM26.25 26.25c0 .69-.56 1.25-1.25 1.25H5c-.69 0-1.25-.56-1.25-1.25v-4.375c0-.306.077-.611.221-.882l4-7.5c.326-.612.96-.993 1.654-.993h10.75c.693 0 1.328.38 1.654.993l4 7.5c.144.27.22.576.22.882v4.375z"/><path d="M11.249 17.5a1.25 1.25 0 100-2.5 1.25 1.25 0 000 2.5zm0 3.75a1.25 1.25 0 100-2.5 1.25 1.25 0 000 2.5zm0 3.75a1.25 1.25 0 100-2.5 1.25 1.25 0 000 2.5zM15 25a1.25 1.25 0 100-2.5 1.25 1.25 0 000 2.5zm3.749 0a1.25 1.25 0 100-2.5 1.25 1.25 0 000 2.5zM15 21.25a1.25 1.25 0 100-2.5 1.25 1.25 0 000 2.5zm3.749 0a1.25 1.25 0 100-2.5 1.25 1.25 0 000 2.5zM15 17.5a1.25 1.25 0 100-2.5 1.25 1.25 0 000 2.5zm3.749 0a1.25 1.25 0 100-2.5 1.25 1.25 0 000 2.5zm10.738-9.94c-3.869-4.068-9.014-6.31-14.488-6.31C9.526 1.25 4.38 3.492.513 7.56.173 7.918 0 8.39 0 8.86c0 .47.172.94.513 1.298l2.88 3.031c.678.712 1.88.712 2.558 0a12.679 12.679 0 013.25-2.48c.597-.308.983-.955.978-1.567l.435-3.285c3.14-1.005 5.661-1.004 8.772 0l.43 3.202c0 .693.367 1.325.967 1.655a12.713 12.713 0 013.258 2.483 1.752 1.752 0 002.557.001l2.889-3.04c.33-.346.502-.798.513-1.253a1.887 1.887 0 00-.513-1.345zm-.906 1.737l-2.89 3.04a.517.517 0 01-.745 0 13.938 13.938 0 00-3.57-2.722c-.194-.108-.31-.315-.316-.638l-.487-3.673a.625.625 0 00-.417-.51c-1.823-.624-3.48-.936-5.143-.936-1.662 0-3.329.312-5.168.936a.625.625 0 00-.418.51l-.493 3.755a.611.611 0 01-.311.542 13.949 13.949 0 00-3.578 2.727.52.52 0 01-.746 0L1.42 9.297a.65.65 0 010-.875C5.048 4.603 9.87 2.5 14.998 2.5S24.95 4.603 28.58 8.422a.65.65 0 010 .875z"/></g><defs><clipPath id="hclip0_133:73"><path d="M0 0h30v30H0z"/></clipPath></defs></symbol><symbol viewBox="0 0 27 27" id="portfolio" xmlns="http://www.w3.org/2000/svg"><g clip-path="url(#iclip0_4:2)"><path d="M.002 13.819H3.4v1.975H.002v-1.976zM19.89 8.175V6.393a6.393 6.393 0 10-12.786 0v1.782H.002v4.061h26.997V8.175H19.89zm-9.299-1.782c0-.803.325-1.529.851-2.055a2.906 2.906 0 014.96 2.055v1.782h-5.811V6.393zM8.54 18.897a2.573 2.573 0 01-2.57 2.57 2.573 2.573 0 01-2.57-2.57v-1.521H.002V27h26.996v-9.624H8.54v1.521zm14.767 4.414h1.582v1.583h-1.582V23.31zM8.54 13.819h18.458v1.975H8.54v-1.976z"/><path d="M6.958 18.897v-5.078H4.982v5.078a.989.989 0 001.976 0z"/></g><defs><clipPath id="iclip0_4:2"><path d="M0 0h27v27H0z"/></clipPath></defs></symbol><symbol viewBox="0 0 27 27" id="skills" xmlns="http://www.w3.org/2000/svg"><path d="M5.062 6.75a3.375 3.375 0 100-6.75 3.375 3.375 0 000 6.75zm5.059 10.884l-.77-7.676a1.682 1.682 0 00-1.678-1.52H2.45c-.87 0-1.593.653-1.679 1.518l-.767 7.678a.843.843 0 00.839.928h.922l.692 6.92c.086.863.81 1.518 1.681 1.518h1.848c.87 0 1.593-.655 1.679-1.519l.692-6.919h.923a.846.846 0 00.84-.928zm10.249-3.29a3.372 3.372 0 003.255 2.531A3.378 3.378 0 0027 13.5a3.378 3.378 0 00-3.375-3.375 3.371 3.371 0 00-3.256 2.531h-3.494V4.22h3.494a3.374 3.374 0 003.256 2.531A3.378 3.378 0 0027 3.375 3.378 3.378 0 0023.625 0a3.374 3.374 0 00-3.256 2.531h-4.338a.844.844 0 00-.844.844v9.281h-2.531a.843.843 0 100 1.688h2.531v9.281c0 .466.378.844.844.844h4.338A3.374 3.374 0 0023.625 27 3.378 3.378 0 0027 23.625a3.378 3.378 0 00-3.375-3.375 3.374 3.374 0 00-3.256 2.531h-3.494v-8.437h3.494z"/></symbol><symbol viewBox="0 0 15 15" id="skype-bio" xmlns="http://www.w3.org/2000/svg"><path d="M14.375 7.5c0-.931-.18-1.821-.542-2.67a6.875 6.875 0 00-1.465-2.198 6.87 6.87 0 00-2.197-1.465 6.756 6.756 0 00-2.67-.542c-.476 0-.965.052-1.466.156A3.655 3.655 0 003.75.001 3.614 3.614 0 001.1 1.098 3.612 3.612 0 000 3.75c0 .847.26 1.608.781 2.285-.104.502-.156.99-.156 1.465 0 .931.18 1.821.542 2.67a6.87 6.87 0 001.465 2.198 6.87 6.87 0 002.197 1.465c.85.361 1.74.542 2.67.542.476 0 .964-.052 1.466-.156.677.52 1.438.78 2.285.78a3.614 3.614 0 002.651-1.098A3.613 3.613 0 0015 11.25a3.65 3.65 0 00-.781-2.285c.104-.501.156-.99.156-1.465zm-3.242 2.915a2.53 2.53 0 01-.864.913c-.362.228-.76.402-1.197.523a5.13 5.13 0 01-1.367.18c-1.1 0-2.048-.213-2.842-.64-.794-.426-1.191-.939-1.191-1.538 0-.292.083-.537.249-.732.166-.195.411-.293.737-.293a.96.96 0 01.527.157c.163.104.313.229.45.375.136.147.284.293.444.44.16.146.371.272.635.376.264.104.561.156.893.156.423 0 .765-.083 1.026-.249.26-.166.39-.376.39-.63a.646.646 0 00-.312-.586c-.143-.09-.508-.208-1.094-.351l-1.426-.352a5.992 5.992 0 01-1.005-.317 3.3 3.3 0 01-.782-.474 1.847 1.847 0 01-.546-.737 2.682 2.682 0 01-.186-1.04c0-.475.109-.894.327-1.255.218-.361.508-.645.87-.85.36-.205.75-.358 1.166-.459.417-.1.846-.151 1.29-.151a6.86 6.86 0 011.777.224c.56.15 1.022.37 1.386.66.365.29.547.613.547.971 0 .293-.093.544-.278.752a.943.943 0 01-.738.313.962.962 0 01-.468-.118A1.857 1.857 0 019.16 5.4c-.117-.11-.24-.22-.371-.327-.13-.108-.306-.2-.527-.279a2.251 2.251 0 00-.752-.117c-.938 0-1.406.251-1.406.752 0 .111.024.209.073.293a.809.809 0 00.16.205.976.976 0 00.294.156c.136.053.25.09.341.113.092.023.235.057.43.102l1.016.235a11 11 0 01.854.224c.25.078.52.19.806.332.286.144.524.303.713.479a2.146 2.146 0 01.664 1.562c0 .476-.107.904-.322 1.285z"/></symbol><symbol viewBox="0 0 18 18" id="skype-f" xmlns="http://www.w3.org/2000/svg"><path d="M10 8.359l-1.238-.275c-.47-.107-1.013-.249-1.013-.692 0-.445.38-.756 1.067-.756 1.383 0 1.256.95 1.943.95.361 0 .678-.212.678-.577 0-.853-1.364-1.492-2.522-1.492-1.256 0-2.594.533-2.594 1.954 0 .684.245 1.412 1.591 1.75l1.672.418c.506.124.633.409.633.666 0 .427-.424.844-1.193.844-1.5 0-1.293-1.155-2.097-1.155-.361 0-.624.249-.624.604 0 .693.841 1.617 2.721 1.617 1.789 0 2.675-.862 2.675-2.017 0-.745-.343-1.537-1.7-1.839z"/><path d="M9 0a9.001 9.001 0 000 18A9.001 9.001 0 009 0zm4.686 13.672a3.13 3.13 0 01-3.756.511 5.249 5.249 0 01-2.986-.334 5.261 5.261 0 01-1.683-1.133 5.27 5.27 0 01-1.55-3.742c0-.306.028-.612.08-.912a3.13 3.13 0 01.523-3.734A3.112 3.112 0 016.53 3.41c.513 0 1.02.128 1.47.367a5.338 5.338 0 013.062.321c.63.267 1.196.648 1.682 1.134a5.272 5.272 0 011.462 4.701 3.132 3.132 0 01-.521 3.74z"/></symbol><symbol viewBox="0 0 15 15" id="telegram-bio" xmlns="http://www.w3.org/2000/svg"><path d="M14.041 1.102L.697 6.259c-.9.328-.9.9-.163 1.064L3.89 8.388l1.31 3.93c.164.408.082.572.491.572.328 0 .491-.164.655-.327l1.637-1.638 3.439 2.538c.654.328 1.064.164 1.227-.573l2.293-10.724c.245-.9-.328-1.392-.9-1.064zm-1.719 2.456L5.937 9.37l-.246 2.702-1.31-3.93 7.532-4.748c.327-.246.655-.082.409.164z"/></symbol><symbol viewBox="0 0 30 30" id="telegram-cont" xmlns="http://www.w3.org/2000/svg"><g clip-path="url(#nclip0_137:198)"><path d="M29.537 2.98c-.367-.448-.915-.695-1.546-.695-.343 0-.706.072-1.079.215L1.518 12.194c-1.348.514-1.53 1.286-1.517 1.7.011.414.236 1.175 1.61 1.612l.026.007 5.267 1.508 2.849 8.146c.388 1.11 1.26 1.8 2.275 1.8.64 0 1.27-.268 1.821-.775l3.258-3 4.726 3.805.002.001.044.036.013.01c.525.407 1.099.622 1.659.623 1.094 0 1.966-.81 2.22-2.064l4.16-20.545c.168-.825.027-1.563-.394-2.078zM8.667 16.735l10.162-5.192-6.328 6.724a.877.877 0 00-.213.391l-1.22 4.943-2.402-6.866zm3.991 8.163a1.705 1.705 0 01-.126.105l1.132-4.584 2.059 1.658-3.065 2.821zM28.208 4.71l-4.16 20.546c-.04.196-.168.654-.497.654-.163 0-.367-.089-.576-.25l-5.355-4.311-.002-.002-3.186-2.566 9.15-9.724a.879.879 0 00-1.04-1.385l-15.05 7.69-5.34-1.528 25.387-9.69c.215-.083.364-.1.452-.1.054 0 .15.006.185.05.047.057.106.251.033.616z"/></g><defs><clipPath id="nclip0_137:198"><path d="M0 0h30v30H0z"/></clipPath></defs></symbol><symbol viewBox="0 0 28 28" id="telegram-f" xmlns="http://www.w3.org/2000/svg"><path d="M19 10.1L11.2 17c-.1.1-.1.2-.1.3l-.3 2.7c0 .1-.1.1-.2 0l-1.2-4c-.1-.2 0-.4.2-.5l9.1-5.7c.3-.1.5.2.3.3z"/><path d="M14 .2c-3.8 0-7.3 1.5-9.8 4C1.7 6.7.1 10.2.1 14c0 3.8 1.5 7.3 4.1 9.8 2.5 2.5 6 4 9.8 4 3.8 0 7.3-1.5 9.8-4 2.5-2.5 4.1-6 4.1-9.8C27.8 6.4 21.6.2 14 .2zm8.2 7.9l-2.8 13.6c-.1.6-.9.9-1.4.5L13.7 19l-2.2 2.2c-.4.4-1 .2-1.2-.3l-1.6-5-4.2-1.3c-.6-.2-.6-.9 0-1.1L21.2 7c.5-.1 1.2.4 1 1.1z"/></symbol></svg>