<svg width="27" height="27" fill="none" xmlns="http://www.w3.org/2000/svg"><g clip-path="url(#clip0_887_4)"><path d="M3.607 26.897s-.679-5.947 5.165-6.61h2.501v-1.152s1.76.755 3.54.084l.057 1.067h2.922s5.088.508 4.78 6.611H3.608z" fill="#FFB44E"/><path d="M22.524 27.002h-19.1l.091-1.55c.177-3.025 2.56-5.334 5.289-5.334h2.076v.309H8.97c-2.63 0-4.927 2.222-5.098 5.135l-.063 1.075h18.666l-.035-1.075c-.171-2.913-2.468-5.135-5.098-5.135h-2.557v-.31h2.706c2.728 0 5.112 2.31 5.29 5.335l.09 1.55h-.347z" fill="#3B434F"/><path d="M11.554 19.005v1.732a1.629 1.629 0 003.26 0V19.04a5.41 5.41 0 00.28-.094v1.803a1.925 1.925 0 11-3.849 0v-1.856c.102.04.205.077.31.111zm-.323 3.333c.1 0 .183.081.183.182v2.754a.183.183 0 01-.366 0V22.52c0-.1.082-.182.183-.182zm3.835-.028c.109 0 .197.088.197.196v1.714a.197.197 0 01-.393 0v-1.714c0-.108.088-.197.196-.197z" fill="#3B434F"/><path d="M11.23 25.26a.1.1 0 01.1.098v.703a.098.098 0 01-.197 0v-.703c0-.054.044-.098.098-.098zm3.85-1.04c.055 0 .099.044.099.098v.703a.098.098 0 11-.197 0v-.703c0-.054.044-.098.098-.098z" fill="#3B434F"/><path d="M10.177 18.313l-1.78.409s-2.179.493-.73 1.962c1.45 1.469 5.18 1.728 5.18 1.728s-.986-.467-1.405-1.124l-.14-2.36-1.125-.615z" fill="#F5F3EF"/><path fill-rule="evenodd" clip-rule="evenodd" d="M12.903 22.553c-.11.14-3.216.043-5.367-1.827-1.557-1.354.787-2.135.787-2.135l1.714-.393 1.489.758.112 2.276c.627.983 1.443 1.096 1.265 1.32zm-1.546-1.209l-.168-2.388-.9-.506-1.713.422s-2.076.426-.759 1.658c1.422 1.33 4.052 1.686 4.327 1.657.285-.03-.16.14-.787-.843z" fill="#3B434F"/><path d="M16.189 18.38l1.78.41s2.181.494.73 1.967c-1.45 1.473-5.181 1.734-5.181 1.734s.986-.469 1.405-1.128l.14-2.367 1.126-.617z" fill="#F5F3EF"/><path fill-rule="evenodd" clip-rule="evenodd" d="M13.461 22.603c.11.14 3.218.044 5.37-1.831 1.559-1.358-.787-2.142-.787-2.142l-1.715-.395-1.49.761-.113 2.283c-.627.986-1.443 1.099-1.265 1.324zm1.547-1.211l.168-2.396.9-.507 1.715.423s2.077.427.759 1.662c-1.423 1.334-4.054 1.692-4.33 1.663-.285-.03.16.14.788-.845z" fill="#3B434F"/><path d="M13.302 1.377c3.495 0 6.254 3.266 6.164 7.19l-.095 4.172c-.085 3.698-2.801 6.62-6.07 6.62-3.268 0-5.984-2.922-6.069-6.62l-.095-4.171c-.09-3.925 2.67-7.191 6.165-7.191z" fill="#fff"/><path fill-rule="evenodd" clip-rule="evenodd" d="M19.747 8.439l-.1 4.34c-.089 3.848-2.935 6.89-6.36 6.89-3.424 0-6.27-3.042-6.36-6.89l-.1-4.34C6.735 4.354 9.626.955 13.288.955c3.663 0 6.554 3.4 6.46 7.484zm-6.474-7.034c-3.447 0-6.168 3.24-6.08 7.135l.094 4.139c.083 3.668 2.763 6.568 5.986 6.568 3.224 0 5.903-2.9 5.987-6.569l.094-4.138c.088-3.894-2.633-7.135-6.08-7.135z" fill="#3B434F"/><path fill-rule="evenodd" clip-rule="evenodd" d="M19.183 15.236c-.083.393-1.175 3.958-.978 2.415.198-1.543-1.898 1.402-1.898 1.402-.387.398-1.955 1.324-1.955 1.324v-.39l-1.15.468-.518-.467-.057.467c-.154-.228-3.278-2.337-3.278-2.337s.536.955.115.468a1.82 1.82 0 01-.047-.056c-.426-.534-1.104-1.892-1.104-1.892l-.115.935c-1.016-1.976-.977-4.44-.977-4.44L7.05 7.987h.46l.17 3.666.748 1.246c.484.707 1.783.39 1.783.39 3.755 2.605 6.154-.156 6.154-.156s1.627.361 2.128.156c.501-.205.573-5.309.573-5.309h.403s-.203 6.863-.286 7.256zm-2.697.395c-.082-.99-.685-.906-.685-.906-1.072.312-1.913.486-2.57.574v-.006c-.652-.088-1.488-.26-2.552-.57 0 0-.598-.083-.68.9 0 0-.24.759.567 1.18l1.02.561s.698.22.681-.618c0 0-.071-.118.34-.225h.624v.019h.628c.414.107.343.23.343.23-.017.845.685.624.685.624l1.028-.57c.813-.425.571-1.193.571-1.193z" fill="#3B434F"/><path d="M16.322 15.263c-.51.443-1.664.865-3.006.865-1.343 0-2.496-.422-3.007-.865 0 0-.052-.144.025-.22.078-.079.2-.062.2-.062.51.444 1.439.81 2.782.81 1.342 0 2.271-.366 2.781-.81 0 0 .125-.046.186.014.116.117.039.268.039.268zm-3.934 1.539h1.798v.281h-1.798v-.28z" fill="#3B434F"/><path d="M6.821 9.072s-.069-.055-.198-.095a.93.93 0 00-.532-.007.824.824 0 00-.544.504 1.69 1.69 0 00-.114.573 2.883 2.883 0 00.007.39c.011.142.03.298.06.467-.001 0-.028.512.155 1.1.172.575.586 1.281 1.348 1.483-.088-1.46-.09-2.948-.182-4.415z" fill="#fff"/><path d="M6.908 9.13s-1.329-.411-1.282.955c0 0 .198 1.98.284 2.163 0 0 .522 1.153 1.383 1.204.841.05 0 0 0 0l.01.372s-1.513-.194-1.806-1.938l-.23-1.585s-.18-2.097 1.558-1.564c1.693.52 0 0 0 0l.083.393z" fill="#3B434F"/><path d="M6.47 11.882s-.075.056-.139.056c-.064 0-.137-.056-.137-.056l-.137-1.381s.189-.681.992-.321l.019.395s-.705-.25-.69.061c.014.3.091 1.246.091 1.246z" fill="#3B434F"/><path d="M19.729 9.075s.07-.055.198-.095a.938.938 0 01.535-.007c.209.06.421.205.546.504.063.15.104.337.115.573a2.885 2.885 0 01-.007.39c-.011.142-.03.297-.06.466 0 0 .027.511-.156 1.1-.173.574-.588 1.28-1.354 1.481.088-1.46.09-2.946.183-4.412z" fill="#fff"/><path d="M19.641 9.134s1.335-.412 1.288.953c0 0-.2 1.98-.285 2.162 0 0-.524 1.152-1.39 1.204-.845.05 0 0 0 0l-.01.371s1.52-.194 1.814-1.937l.232-1.584s.18-2.095-1.566-1.562c-1.7.519 0 0 0 0l-.083.393z" fill="#3B434F"/><path d="M20.082 11.884s.074.056.139.056c.064 0 .137-.056.137-.056l.138-1.381s-.19-.68-.996-.32l-.02.394s.708-.25.694.061c-.015.3-.092 1.246-.092 1.246z" fill="#3B434F"/><path fill-rule="evenodd" clip-rule="evenodd" d="M13.807 11.773h.098c.204.276.287.7.394 1.068.033.113 0 .313-.028.393-.107.295-.441.29-.717.421-.074.036-.129.097-.225.113-.062-.055-.137-.066-.168-.155-.076-.104.022-.17.098-.21.139-.075.567-.148.618-.281.064-.073.022-.29 0-.366-.054-.195-.08-.358-.154-.534-.05-.116-.136-.24-.084-.379.042-.018.134-.039.168-.07z" fill="#3B434F"/><path d="M9.916 9.61h.393a.393.393 0 010 .786h-.393a.393.393 0 110-.787zm6.406 0h.393a.393.393 0 110 .786h-.393a.393.393 0 010-.787z" fill="#3B434F"/><path d="M16.687 11.464a.702.702 0 110 1.405.702.702 0 010-1.405zm-6.8 0a.702.702 0 110 1.405.702.702 0 010-1.405z" fill="#EDF1F1"/><path d="M7.164 10.902s.782-3.424 1.462-4.36c.68-.938 1.269-1.162 1.574-1.19.306-.029 2.712.682 6.016-.132 0 0 1.303-.052 1.856 1.255 0 0 1.164 2.084 1.35 4.163h.224s.477-3.645.281-5.815c-.195-2.17-3.036-3.237-3.036-3.237l.619-.463S16.066.677 15.485.925l.45-.925s-2.914.006-4.554 1.321l.056-.66s-5.781.886-4.554 10.109l.281.132z" fill="#3B434F"/><path fill-rule="evenodd" clip-rule="evenodd" d="M19.639 8.785c-.04.32-.073.714-.145 1.065-.215 1.05-1.148 2.024-2.741 2.135-1.594.11-2.95-.665-3.03-1.733-.013-.181-.049-.385-.076-.582a.717.717 0 00-.698-.001c-.028.202-.065.41-.079.596-.08 1.071-1.44 1.85-3.038 1.739-1.599-.111-2.535-1.088-2.75-2.142-.072-.352-.106-.747-.145-1.069l-.235-.016.033-.444.057.004 1.454.102 1.227.085 1.23.086 1.914.133a.37.37 0 01.276.153.966.966 0 00.801.001.365.365 0 01.282-.162l1.909-.133 1.225-.086 1.224-.085 1.449-.1h.09v.438l-.235.016zm-7.536.479L8.35 9.003c-.49-.041-.665.492-.695.899-.064.857.924 1.625 2.206 1.714 1.281.089 2.372-.534 2.436-1.39.03-.407.168-.659-.194-.962zm6.82.626c-.03-.405-.204-.937-.693-.896l-3.741.26c-.361.302-.224.553-.194.958.064.854 1.151 1.475 2.429 1.386 1.278-.089 2.262-.854 2.198-1.708z" fill="#3B434F"/></g><defs><clipPath id="clip0_887_4"><path fill="#fff" d="M0 0h27v27H0z"/></clipPath></defs></svg>