<svg width="24" height="24" fill="none" xmlns="http://www.w3.org/2000/svg"><g clip-path="url(#clip0_831_8)"><path d="M.633 18.61l-.211-2.954-.117-.117h23.227v2.367l-.798 1.5H1.454l-.821-.797z" fill="#C3DDFF"/><path d="M5.508 5.133L5.672.469H8.32l.446 4.828.867.539c-.867 1.125-2.62 3.36-2.695 3.305a14.7 14.7 0 01-.422-.352l-1.43-1.734-.469-1.22.89-.702z" fill="#69D6F4"/><path d="M9.328 21.469v-1.922l4.969-.14.14.445.586 2.46.141 1.196H8.79v-.492l.54-1.547z" fill="#FFB44E"/><path d="M5.297.084c-.258.127-.281.22-.281 1.12v.812H3.408c-1.744 0-1.931.018-2.386.267-.295.164-.67.562-.811.867a2.477 2.477 0 00-.16.553c-.065.403-.07 14.203-.004 14.597.094.581.52 1.195.994 1.44.454.233.384.229 4.298.229h3.675l-.033.431c-.037.51-.178 1.238-.3 1.538-.276.698-.576.998-1.073 1.064-.427.051-.577.187-.577.515 0 .202.117.366.314.44.155.057 9.155.057 9.31 0a.461.461 0 00.314-.44c0-.328-.15-.464-.577-.515a1.29 1.29 0 01-.356-.104c-.553-.285-.914-1.19-1.022-2.545l-.028-.398 3.417.033c2.203.018 3.549.014 3.792-.02.82-.102 1.407-.576 1.707-1.382.06-.164.075-1.125.089-7.383.004-4.533-.005-7.303-.033-7.49a1.985 1.985 0 00-1.481-1.632c-.193-.051-1.477-.065-6.854-.065H9v-.774C9 .337 8.958.178 8.7.07 8.564.014 8.24 0 6.998 0 5.63 0 5.442.01 5.297.084zm2.719 3.277l.023 2.358.127.126c.107.108.178.132.473.15l.347.028-.994 1.322-.989 1.317-.994-1.317-.993-1.322L5.33 6c.178-.014.365-.052.422-.084C6 5.775 6 5.76 6 3.28V.984l.998.01.994.014.024 2.353zm-3 .647v1.008h-.568c-.618 0-.782.051-.88.267-.127.281-.123.295 1.518 2.484.867 1.153 1.622 2.124 1.678 2.156a.51.51 0 00.492-.014c.108-.075 2.982-3.872 3.16-4.176.126-.206.084-.436-.108-.595-.136-.118-.169-.122-.727-.122H9V3h13.209l.249.131c.183.094.29.192.394.361l.14.225.014 5.644.01 5.639H.984V3.82l.113-.239c.108-.239.319-.44.544-.53.07-.028.792-.046 1.748-.046L5.016 3v1.008zm17.99 13.11c-.014 1.07-.018 1.154-.117 1.332a1.009 1.009 0 01-.558.488c-.136.046-2.512.06-10.373.065l-10.2.005-.197-.103a1.163 1.163 0 01-.525-.62c-.033-.112-.052-.58-.052-1.241v-1.06H23.02l-.014 1.135zm-9 3.109c.047.89.272 1.875.553 2.428.085.178.16.328.16.342 0 .01-1.224.019-2.719.019-1.495 0-2.719-.01-2.719-.02 0-.013.07-.168.16-.341.089-.174.206-.47.262-.647.117-.385.281-1.392.281-1.74 0-.13.014-.252.033-.266.014-.02.919-.029 2.002-.024l1.973.014.014.235z" fill="#2B2B2B"/><path d="M8.977 5.016V3h13.242l.515.352.282.375v11.25H1.008V3.773l.14-.304.235-.258.281-.164L1.945 3h3.07v2.016h-1.1l-.235.093-.118.188-.046.187.164.305 3.047 4.102.117.093h.21l.212-.093 3.164-4.196.07-.21-.07-.235-.14-.14-.118-.094H8.977z" fill="#FFB44E"/><path d="M14.531 6.75l1.219-.61 1.125-.374.75.07 1.078.305.914.75c.219.632.656 1.907.656 1.945 0 .047.024.61 0 .656-.018.038-.492 1.11-.726 1.64l-1.031.704c-.29.101-.886.305-.961.305h-.985c-.047 0-.867-.258-.914-.258-.037 0-.5-.156-.726-.235l-.657-.632-.351-1.266-.352-.352.399-1.007.281-.868.281-.773z" fill="#C3DDFF"/><path d="M15.984 5.147a.932.932 0 00-.187.342c-.099.39-.09.384-.352.22-.168-.107-.29-.15-.436-.154-.197 0-.215.014-.839.642l-.637.642.023.202c.014.112.08.295.15.403.066.108.122.21.122.234 0 .024-.112.066-.253.099-.319.07-.478.192-.544.417-.06.225-.06 1.387 0 1.612.066.225.225.347.544.417.14.033.253.075.253.099 0 .023-.056.126-.122.234-.07.108-.136.29-.15.403l-.023.202.637.642c.624.628.643.642.84.642.145-.004.267-.047.435-.15.263-.168.263-.168.352.207.037.173.098.28.197.365.136.117.15.117.98.117.646 0 .876-.014.974-.07.141-.07.253-.29.31-.6l.033-.173.3.168c.464.258.52.235 1.251-.492.581-.581.596-.604.596-.801a.876.876 0 00-.141-.45c-.075-.136-.122-.258-.103-.268a.889.889 0 01.197-.056c.29-.06.501-.197.557-.356.066-.197.066-1.575 0-1.772-.056-.16-.267-.295-.557-.356a.887.887 0 01-.197-.056c-.019-.01.028-.132.103-.268a.876.876 0 00.14-.45c0-.197-.014-.22-.595-.801-.731-.727-.787-.75-1.251-.492l-.3.168-.033-.178c-.047-.272-.202-.553-.333-.61-.075-.037-.422-.055-.961-.055h-.848l-.132.13zm1.407 1.139c.08.36.178.483.497.6.346.131.417.127.74-.07l.277-.164.215.215.216.216-.15.276c-.178.32-.192.502-.056.797.14.31.206.361.562.455l.324.08v.619l-.324.08c-.356.093-.422.144-.562.454-.136.295-.122.478.056.797l.15.276-.216.216-.215.215-.277-.164c-.319-.196-.394-.201-.736-.075-.323.122-.403.211-.501.572l-.08.296-.31.014-.309.014-.051-.202c-.028-.112-.066-.244-.08-.295-.042-.16-.202-.295-.464-.399-.3-.121-.436-.107-.755.09l-.225.14-.23-.225-.23-.23.141-.23c.197-.318.211-.412.108-.712-.117-.337-.281-.483-.623-.562l-.267-.057v-.646l.267-.057c.342-.08.506-.225.623-.562.103-.3.09-.394-.108-.713l-.14-.23.23-.23.23-.224.224.14c.319.197.455.212.755.09.314-.127.426-.244.497-.516a6.44 6.44 0 01.075-.295c.018-.066.08-.08.342-.08h.319l.06.286z" fill="#2B2B2B"/><path d="M16.556 8.114a.99.99 0 00-.506 1.116c.262 1.008 1.645 1.003 1.912-.01.207-.778-.67-1.472-1.406-1.106zM3.281 11.077a.607.607 0 00-.206.234c-.075.16-.08.197-.019.351.131.352-.051.338 3.938.338 2.095 0 3.595-.019 3.66-.042a.52.52 0 00.268-.713c-.127-.234-.061-.23-3.924-.23-2.775 0-3.628.015-3.717.062zm-.108 2.071a.484.484 0 000 .704l.122.117h4.402l.136-.136c.108-.108.136-.178.136-.333 0-.155-.028-.225-.136-.333l-.136-.136H3.295l-.122.117zm8.593 3.394c-.479.155-.75.497-.75.956 0 .291.197.666.436.82.164.109.239.127.548.127.31 0 .384-.018.548-.126.24-.155.436-.53.436-.82 0-.235-.098-.507-.248-.662-.22-.239-.699-.384-.97-.295z" fill="#2B2B2B"/></g><defs><clipPath id="clip0_831_8"><path fill="#fff" d="M0 0h24v24H0z"/></clipPath></defs></svg>